<svg xmlns="http://www.w3.org/2000/svg"
     style="width:0;height:0;position:absolute;overflow:hidden;">
    <defs>
        <!-- Instagram icon -->
        <symbol viewBox="0 0 24 24" id="instagram" fill-rule="evenodd" clip-rule="evenodd">
            <path
                d="M15.233 5.488c-.843-.038-1.097-.046-3.233-.046s-2.389.008-3.232.046c-2.17.099-3.181 1.127-3.279 3.279-.039.844-.048 1.097-.048 3.233s.009 2.389.047 3.233c.099 2.148 1.106 3.18 3.279 3.279.843.038 1.097.047 3.233.047 2.137 0 2.39-.008 3.233-.046 2.17-.099 3.18-1.129 3.279-3.279.038-.844.046-1.097.046-3.233s-.008-2.389-.046-3.232c-.099-2.153-1.111-3.182-3.279-3.281zm-3.233 10.62c-2.269 0-4.108-1.839-4.108-4.108 0-2.269 1.84-4.108 4.108-4.108s4.108 1.839 4.108 4.108c0 2.269-1.839 4.108-4.108 4.108zm4.271-7.418c-.53 0-.96-.43-.96-.96s.43-.96.96-.96.96.43.96.96-.43.96-.96.96zm-1.604 3.31c0 1.473-1.194 2.667-2.667 2.667s-2.667-1.194-2.667-2.667c0-1.473 1.194-2.667 2.667-2.667s2.667 1.194 2.667 2.667zm4.333-12h-14c-2.761 0-5 2.239-5 5v14c0 2.761 2.239 5 5 5h14c2.762 0 5-2.239 5-5v-14c0-2.761-2.238-5-5-5zm.952 15.298c-.132 2.909-1.751 4.521-4.653 4.654-.854.039-1.126.048-3.299.048s-2.444-.009-3.298-.048c-2.908-.133-4.52-1.748-4.654-4.654-.039-.853-.048-1.125-.048-3.298 0-2.172.009-2.445.048-3.298.134-2.908 1.748-4.521 4.654-4.653.854-.04 1.125-.049 3.298-.049s2.445.009 3.299.048c2.908.133 4.523 1.751 4.653 4.653.039.854.048 1.127.048 3.299 0 2.173-.009 2.445-.048 3.298z"/>
        </symbol>

        <!-- Youtube icon -->
        <symbol viewBox="0 0 24 24" id="youtube" fill-rule="evenodd" clip-rule="evenodd">
            <path
                d="M19.615 3.184c-3.604-.246-11.631-.245-15.23 0-3.897.266-4.356 2.62-4.385 8.816.029 6.185.484 8.549 4.385 8.816 3.6.245 11.626.246 15.23 0 3.897-.266 4.356-2.62 4.385-8.816-.029-6.185-.484-8.549-4.385-8.816zm-10.615 12.816v-8l8 3.993-8 4.007z"/>
        </symbol>

        <!-- Twitch icon -->
        <symbol viewBox="0 0 24 24" id="twitch" fill-rule="evenodd" clip-rule="evenodd">
            <path
                d="M2.149 0l-1.612 4.119v16.836h5.731v3.045h3.224l3.045-3.045h4.657l6.269-6.269v-14.686h-21.314zm19.164 13.612l-3.582 3.582h-5.731l-3.045 3.045v-3.045h-4.836v-15.045h17.194v11.463zm-3.582-7.343v6.262h-2.149v-6.262h2.149zm-5.731 0v6.262h-2.149v-6.262h2.149z"
                fill-rule="evenodd" clip-rule="evenodd"/>
        </symbol>

        <!-- Price tag icon -->
        <symbol viewBox="0 0 24 24" id="priceTag" fill-rule="evenodd" clip-rule="evenodd">
            <path d="M12.628 21.412l5.969-5.97 1.458 3.71-12.34 4.848-4.808-12.238 9.721 9.65zm-1.276-21.412h-9.352v9.453l10.625 10.547 9.375-9.375-10.648-10.625zm4.025 9.476c-.415-.415-.865-.617-1.378-.617-.578 0-1.227.241-2.171.804-.682.41-1.118.584-1.456.584-.361 0-1.083-.408-.961-1.218.052-.345.25-.697.572-1.02.652-.651 1.544-.848 2.276-.106l.744-.744c-.476-.476-1.096-.792-1.761-.792-.566 0-1.125.227-1.663.677l-.626-.627-.698.699.653.652c-.569.826-.842 2.021.076 2.938 1.011 1.011 2.188.541 3.413-.232.6-.379 1.083-.563 1.475-.563.589 0 1.18.498 1.078 1.258-.052.386-.26.763-.621 1.122-.451.451-.904.679-1.347.679-.418 0-.747-.192-1.049-.462l-.739.739c.463.458 1.082.753 1.735.753.544 0 1.087-.201 1.612-.597l.54.538.697-.697-.52-.521c.743-.896 1.157-2.209.119-3.247zm-9.678-7.476c.938 0 1.699.761 1.699 1.699 0 .938-.761 1.699-1.699 1.699-.938 0-1.699-.761-1.699-1.699 0-.938.761-1.699 1.699-1.699z"/>
        </symbol>

        <!-- Eco icon -->
        <symbol viewBox="0 0 24 24" id="eco" fill-rule="evenodd" clip-rule="evenodd">
            <path d="M15.787 7.531c-5.107 2.785-12.72 9.177-15.787 15.469h2.939c.819-2.021 2.522-4.536 3.851-5.902 8.386 3.747 17.21-2.775 17.21-11.343 0-1.535-.302-3.136-.92-4.755-2.347 3.119-5.647 1.052-10.851 1.625-7.657.844-11.162 6.797-8.764 11.54 3.506-3.415 9.523-6.38 12.322-6.634z"/>
        </symbol>

        <!-- Date icon -->
        <symbol viewBox="0 0 24 24" id="date" fill-rule="evenodd" clip-rule="evenodd">
            <path d="M20 19h-4v-4h4v4zm-6-10h-4v4h4v-4zm6 0h-4v4h4v-4zm-12 6h-4v4h4v-4zm16-14v22h-24v-22h24zm-2 6h-20v14h20v-14zm-8 8h-4v4h4v-4zm-6-6h-4v4h4v-4z"/>
        </symbol>

        <!-- Info icon -->
        <symbol viewBox="0 0 24 24" id="info" fill-rule="evenodd" clip-rule="evenodd">
            <path d="m2 4v16.002c0 .385.22.735.567.902.346.166.758.119 1.058-.121l4.725-3.781h12.65c.552 0 1-.448 1-1v-12.002c0-.552-.448-1-1-1h-18c-.552 0-1 .448-1 1zm9.998 5.002c.414 0 .75.336.75.75v3.5c0 .414-.336.75-.75.75s-.75-.336-.75-.75v-3.5c0-.414.336-.75.75-.75zm.002-3c.552 0 1 .448 1 1s-.448 1-1 1-1-.448-1-1 .448-1 1-1z" fill-rule="nonzero"/>
        </symbol>

        <!-- Soundcloud icon -->
        <symbol viewBox="0 0 300 300"  id="soundcloud" fill-rule="evenodd" clip-rule="evenodd">
            <g id="XMLID_526_">
                <path id="XMLID_527_" d="M14.492,208.896c0.619,0,1.143-0.509,1.232-1.226l3.365-26.671l-3.355-27.278
                    c-0.1-0.717-0.623-1.23-1.242-1.23c-0.635,0-1.176,0.524-1.26,1.23l-2.941,27.278l2.941,26.662
                    C13.316,208.377,13.857,208.896,14.492,208.896z"/>
                <path id="XMLID_530_" d="M3.397,198.752c0.608,0,1.101-0.473,1.19-1.18l2.608-16.574l-2.608-16.884
                    c-0.09-0.685-0.582-1.18-1.19-1.18c-0.635,0-1.127,0.495-1.217,1.19L0,180.999l2.18,16.569
                    C2.27,198.269,2.762,198.752,3.397,198.752z"/>
                <path id="XMLID_531_" d="M27.762,148.644c-0.08-0.867-0.715-1.5-1.503-1.5c-0.782,0-1.418,0.633-1.491,1.5l-2.811,32.355
                    l2.811,31.174c0.073,0.862,0.709,1.487,1.491,1.487c0.788,0,1.423-0.625,1.503-1.487l3.18-31.174L27.762,148.644z"/>
                <path id="XMLID_532_" d="M38.152,214.916c0.922,0,1.668-0.759,1.758-1.751l3.005-32.156l-3.005-33.258
                    c-0.09-0.999-0.836-1.749-1.758-1.749c-0.935,0-1.692,0.751-1.756,1.754l-2.656,33.253l2.656,32.156
                    C36.46,214.158,37.217,214.916,38.152,214.916z"/>
                <path id="XMLID_533_" d="M50.127,215.438c1.074,0,1.936-0.86,2.025-2.011l-0.01,0.008l2.83-32.426l-2.83-30.857
                    c-0.08-1.132-0.941-2.005-2.016-2.005c-1.09,0-1.947,0.873-2.012,2.014l-2.502,30.849l2.502,32.418
                    C48.18,214.578,49.037,215.438,50.127,215.438z"/>
                <path id="XMLID_534_" d="M67.132,181.017l-2.655-50.172c-0.074-1.272-1.065-2.286-2.281-2.286c-1.207,0-2.195,1.013-2.269,2.286
                    l-2.35,50.172l2.35,32.418c0.074,1.278,1.063,2.278,2.269,2.278c1.217,0,2.207-1,2.281-2.278v0.009L67.132,181.017z"/>
                <path id="XMLID_535_" d="M74.386,215.766c1.339,0,2.45-1.111,2.513-2.529v0.021l2.482-32.233l-2.482-61.656
                    c-0.063-1.418-1.174-2.529-2.513-2.529c-1.37,0-2.471,1.111-2.545,2.529l-2.185,61.656l2.195,32.222
                    C71.915,214.655,73.016,215.766,74.386,215.766z"/>
                <path id="XMLID_536_" d="M86.645,111.435c-1.508,0-2.725,1.238-2.787,2.799l-2.033,66.801l2.033,31.884
                    c0.063,1.553,1.279,2.783,2.787,2.783c1.504,0,2.73-1.22,2.783-2.788v0.016l2.307-31.895l-2.307-66.801
                    C89.375,112.663,88.148,111.435,86.645,111.435z"/>
                <path id="XMLID_782_" d="M99.01,215.766c1.656,0,2.975-1.336,3.037-3.056v0.019l2.133-31.693l-2.133-69.045
                    c-0.063-1.714-1.381-3.056-3.037-3.056c-1.666,0-3.005,1.342-3.031,3.056l-1.916,69.045l1.916,31.693
                    C96.005,214.43,97.344,215.766,99.01,215.766z"/>
                <path id="XMLID_783_" d="M111.477,215.734c1.787,0,3.237-1.463,3.291-3.318v0.029l1.963-31.404l-1.963-67.289
                    c-0.054-1.854-1.504-3.311-3.291-3.311c-1.8,0-3.25,1.456-3.303,3.311l-1.725,67.289l1.736,31.389
                    C108.227,214.271,109.677,215.734,111.477,215.734z"/>
                <path id="XMLID_784_" d="M129.359,181.041l-1.777-64.836c-0.043-2-1.609-3.571-3.551-3.571c-1.947,0-3.514,1.571-3.555,3.584
                    l-1.594,64.823l1.594,31.198c0.041,1.984,1.607,3.556,3.555,3.556c1.941,0,3.508-1.572,3.551-3.585v0.029L129.359,181.041z"/>
                <path id="XMLID_785_" d="M136.682,215.853c2.064,0,3.773-1.717,3.805-3.828v0.017l1.613-30.984l-1.613-77.153
                    c-0.031-2.119-1.74-3.833-3.805-3.833c-2.063,0-3.767,1.722-3.809,3.844l-1.434,77.111l1.434,31.016
                    C132.915,214.136,134.619,215.853,136.682,215.853z"/>
                <path id="XMLID_786_" d="M149.291,92.814c-2.229,0-4.037,1.849-4.074,4.103l-1.667,84.151l1.677,30.526
                    c0.027,2.225,1.836,4.068,4.064,4.068c2.195,0,4.037-1.844,4.047-4.105v0.037l1.82-30.526l-1.82-84.151
                    C153.328,94.655,151.486,92.814,149.291,92.814z"/>
                <path id="XMLID_787_" d="M160.82,215.882c0.09,0.008,101.623,0.056,102.275,0.056c20.385,0,36.904-16.722,36.904-37.357
                    c0-20.624-16.52-37.349-36.904-37.349c-5.059,0-9.879,1.034-14.275,2.907c-2.922-33.671-30.815-60.077-64.842-60.077
                    c-8.318,0-16.429,1.662-23.593,4.469c-2.788,1.09-3.534,2.214-3.556,4.392v118.539C156.861,213.752,158.607,215.655,160.82,215.882
                    z"/>
            </g>
        </symbol>
    </defs>
</svg>
