<svg width="2000" height="2000" viewBox="0 0 2000 2000" fill="none" xmlns="http://www.w3.org/2000/svg">
<g clip-path="url(#clip0_627_5)">
<path fill-rule="evenodd" clip-rule="evenodd" d="M999.972 -0.000706348C447.72 -0.000706348 0 452.264 0 1010.25C0 1037.15 1.03929 1063.85 3.0632 1090.2L770.78 1090.2C762.191 1065.17 757.541 1038.26 757.541 1010.25C757.541 874.908 866.122 765.257 999.972 765.257C1133.93 765.257 1242.46 874.951 1242.46 1010.25C1242.46 1038.26 1237.81 1065.17 1229.22 1090.2H1996.94C1999.02 1063.85 2000 1037.15 2000 1010.25C2000.06 452.264 1552.33 -0.000706348 999.972 -0.000706348Z" fill="white"/>
<path fill-rule="evenodd" clip-rule="evenodd" d="M999.972 -0.000706348C447.72 -0.000706348 0 452.264 0 1010.25C0 1037.15 1.03929 1063.85 3.0632 1090.2L770.78 1090.2C762.191 1065.17 757.541 1038.26 757.541 1010.25C757.541 874.908 866.122 765.257 999.972 765.257C1133.93 765.257 1242.46 874.951 1242.46 1010.25C1242.46 1038.26 1237.81 1065.17 1229.22 1090.2H1996.94C1999.02 1063.85 2000 1037.15 2000 1010.25C2000.06 452.264 1552.33 -0.000706348 999.972 -0.000706348Z" fill="white"/>
<path fill-rule="evenodd" clip-rule="evenodd" d="M999.972 -0.000706348C447.72 -0.000706348 0 452.264 0 1010.25C0 1037.15 1.03929 1063.85 3.0632 1090.2L770.78 1090.2C762.191 1065.17 757.541 1038.26 757.541 1010.25C757.541 874.908 866.122 765.257 999.972 765.257C1133.93 765.257 1242.46 874.951 1242.46 1010.25C1242.46 1038.26 1237.81 1065.17 1229.22 1090.2H1996.94C1999.02 1063.85 2000 1037.15 2000 1010.25C2000.06 452.264 1552.33 -0.000706348 999.972 -0.000706348Z" fill="white"/>
<path fill-rule="evenodd" clip-rule="evenodd" d="M999.972 -0.000706348C447.72 -0.000706348 0 452.264 0 1010.25C0 1037.15 1.03929 1063.85 3.0632 1090.2L770.78 1090.2C762.191 1065.17 757.541 1038.26 757.541 1010.25C757.541 874.908 866.122 765.257 999.972 765.257C1133.93 765.257 1242.46 874.951 1242.46 1010.25C1242.46 1038.26 1237.81 1065.17 1229.22 1090.2H1996.94C1999.02 1063.85 2000 1037.15 2000 1010.25C2000.06 452.264 1552.33 -0.000706348 999.972 -0.000706348Z" fill="white"/>
<path fill-rule="evenodd" clip-rule="evenodd" d="M999.972 -0.000706348C447.72 -0.000706348 0 452.264 0 1010.25C0 1037.15 1.03929 1063.85 3.0632 1090.2L770.78 1090.2C762.191 1065.17 757.541 1038.26 757.541 1010.25C757.541 874.908 866.122 765.257 999.972 765.257C1133.93 765.257 1242.46 874.951 1242.46 1010.25C1242.46 1038.26 1237.81 1065.17 1229.22 1090.2H1996.94C1999.02 1063.85 2000 1037.15 2000 1010.25C2000.06 452.264 1552.33 -0.000706348 999.972 -0.000706348Z" fill="white"/>
<path fill-rule="evenodd" clip-rule="evenodd" d="M999.972 -0.000706348C447.72 -0.000706348 0 452.264 0 1010.25C0 1037.15 1.03929 1063.85 3.0632 1090.2L770.78 1090.2C762.191 1065.17 757.541 1038.26 757.541 1010.25C757.541 874.908 866.122 765.257 999.972 765.257C1133.93 765.257 1242.46 874.951 1242.46 1010.25C1242.46 1038.26 1237.81 1065.17 1229.22 1090.2H1996.94C1999.02 1063.85 2000 1037.15 2000 1010.25C2000.06 452.264 1552.33 -0.000706348 999.972 -0.000706348Z" fill="white"/>
<path fill-rule="evenodd" clip-rule="evenodd" d="M999.972 -0.000706348C447.72 -0.000706348 0 452.264 0 1010.25C0 1037.15 1.03929 1063.85 3.0632 1090.2L770.78 1090.2C762.191 1065.17 757.541 1038.26 757.541 1010.25C757.541 874.908 866.122 765.257 999.972 765.257C1133.93 765.257 1242.46 874.951 1242.46 1010.25C1242.46 1038.26 1237.81 1065.17 1229.22 1090.2H1996.94C1999.02 1063.85 2000 1037.15 2000 1010.25C2000.06 452.264 1552.33 -0.000706348 999.972 -0.000706348Z" fill="white"/>
<path fill-rule="evenodd" clip-rule="evenodd" d="M999.972 -0.000706348C447.72 -0.000706348 0 452.264 0 1010.25C0 1037.15 1.03929 1063.85 3.0632 1090.2L770.78 1090.2C762.191 1065.17 757.541 1038.26 757.541 1010.25C757.541 874.908 866.122 765.257 999.972 765.257C1133.93 765.257 1242.46 874.951 1242.46 1010.25C1242.46 1038.26 1237.81 1065.17 1229.22 1090.2H1996.94C1999.02 1063.85 2000 1037.15 2000 1010.25C2000.06 452.264 1552.33 -0.000706348 999.972 -0.000706348Z" fill="white"/>
</g>
<defs>
<clipPath id="clip0_627_5">
<rect width="2000" height="2000" fill="white"/>
</clipPath>
</defs>
</svg>
