<svg width="256" height="95" viewBox="0 0 256 95" fill="none" xmlns="http://www.w3.org/2000/svg">
<path fill-rule="evenodd" clip-rule="evenodd" d="M256 47.6254C256 21.7576 234.837 0.786133 208.727 0.786133C207.468 0.786133 206.219 0.834814 204.986 0.929615V36.8899C206.157 36.4876 207.416 36.2698 208.727 36.2698C215.06 36.2698 220.191 41.3558 220.191 47.6254C220.191 53.9002 215.058 58.9836 208.727 58.9836C207.416 58.9836 206.157 58.7658 204.986 58.3635V94.3238C206.219 94.4212 207.468 94.4673 208.727 94.4673C234.837 94.4699 256 73.4984 256 47.6254ZM4.42358 36.96H4.38654H0V38.2081V58.7981H4.42358L4.42358 45.8666L11.514 58.137L11.9002 58.8139L11.9003 58.814V58.8087H16.2339L16.6202 58.137L23.7106 45.8666L23.7106 45.8665V58.7981H28.1342V36.96H28.1341H23.7476H23.7106V37.0233L23.7106 37.0234L14.0697 53.7154L4.42358 37.0234L4.42358 36.96ZM73.1902 36.96H83.3866V41.3815H73.1902V58.8034H68.7666V41.3815H58.5807V36.96H68.7666H73.1902ZM102.568 36.96H112.759V41.3815H102.568V58.8034H98.1442V41.3815H87.9531V36.96H98.1442H102.568ZM121.765 36.96H117.341V54.3877V58.8034V58.8093H139.486V54.3877H121.765V36.96ZM185.896 55.8046L185.896 58.7982H181.473V55.8046L181.473 50.3093L170.731 36.96H176.409L181.473 43.2539L183.684 46.0042L185.896 43.2539L190.96 36.96H196.638L185.896 50.3093L185.896 55.8046ZM144.031 54.3877H166.175V58.8093H144.031V54.3877ZM166.175 36.96H144.031V41.3815H166.175V36.96ZM144.036 45.624H166.218V50.0456H144.036V45.624ZM47.5111 41.8999L40.3308 54.3765L37.7856 58.7981H32.6794L35.2246 54.3765L44.9554 37.473L45.257 36.96H49.7653L50.0669 37.473L59.8665 54.3765L62.3799 58.7241V58.7981H57.3161L54.7498 54.3765L47.5111 41.8999Z" fill="white"/>
</svg>
