<?xml version="1.0" encoding="utf-8"?>
<!-- Generator: Adobe Illustrator 25.2.1, SVG Export Plug-In . SVG Version: 6.00 Build 0)  -->
<svg version="1.1" xmlns="http://www.w3.org/2000/svg" xmlns:xlink="http://www.w3.org/1999/xlink" x="0px" y="0px"
	 viewBox="0 0 612 792" style="enable-background:new 0 0 612 792;" xml:space="preserve">
<style type="text/css">
	.st0{display:none;}
	.st1{display:inline;fill:#99A9D7;}
	.st2{fill:none;stroke:#FFFFFF;stroke-width:5;stroke-miterlimit:10;}
	.st3{fill:#FFFFFF;}
	.st4{display:inline;fill:#FFFFFF;}
	.st5{font-family:'Gibson-Heavy';}
	.st6{font-size:33.7953px;}
</style>
<g id="Layer_2" class="st0">
	<rect x="1.69" y="0.96" class="st1" width="611.92" height="790.45"/>
</g>
<g id="Layer_1">
	<path class="st2" d="M576.98,396c0-39.09-31.92-70.77-71.3-70.77c-1.9,0-3.78,0.07-5.64,0.22v54.33c1.77-0.61,3.67-0.94,5.64-0.94
		c9.55,0,17.29,7.68,17.29,17.16c0,9.48-7.74,17.16-17.29,17.16c-1.98,0-3.88-0.33-5.64-0.94v54.33c1.86,0.15,3.74,0.22,5.64,0.22
		C545.06,466.78,576.98,435.09,576.98,396z"/>
	<g>
		<rect x="35.02" y="376.23" class="st3" width="10.05" height="49.66"/>
		<polygon class="st3" points="72.79,424.4 71.92,425.91 62.07,425.91 62.07,425.93 61.18,424.4 45.08,396.49 35.02,379.08 
			35.02,376.23 44.99,376.23 45.08,376.38 66.99,414.34 		"/>
		<rect x="88.91" y="376.23" class="st3" width="10.05" height="49.66"/>
		<polygon class="st3" points="98.96,376.23 98.96,379.08 88.91,396.49 72.79,424.4 71.92,425.91 62.07,425.91 62.07,425.93 
			61.18,424.4 66.99,414.34 88.91,376.38 88.99,376.23 		"/>
		<rect x="191.31" y="376.23" class="st3" width="10.05" height="49.66"/>
		<rect x="168.15" y="376.24" class="st3" width="56.38" height="10.05"/>
		<rect x="258.07" y="376.23" class="st3" width="10.05" height="49.66"/>
		<rect x="234.91" y="376.24" class="st3" width="56.38" height="10.05"/>
		<rect x="301.71" y="376.23" class="st3" width="10.05" height="49.66"/>
		<rect x="301.7" y="415.86" class="st3" width="50.32" height="10.05"/>
		<polygon class="st3" points="457.5,390.55 457.5,425.9 447.45,425.9 447.45,390.55 452.48,396.8 		"/>
		<polygon class="st3" points="481.92,376.23 457.5,406.59 452.48,412.84 447.45,419.09 447.45,403.05 452.48,396.8 457.5,390.55 
			469.01,376.23 		"/>
		<polygon class="st3" points="457.5,403.05 457.5,419.09 452.48,412.84 447.45,406.59 423.04,376.23 435.94,376.23 447.45,390.55 
			452.48,396.8 		"/>
		<rect x="362.36" y="415.86" class="st3" width="50.32" height="10.05"/>
		<rect x="362.36" y="376.24" class="st3" width="50.32" height="10.05"/>
		<rect x="362.37" y="395.93" class="st3" width="50.41" height="10.05"/>
		<polygon class="st3" points="148.8,377.41 143,387.47 126.68,415.84 120.9,425.9 109.29,425.9 115.08,415.84 137.19,377.41 
			137.87,376.23 148.12,376.23 		"/>
		<polygon class="st3" points="176.8,425.73 176.8,425.9 165.28,425.9 159.45,415.84 143,387.47 137.19,377.41 137.87,376.23 
			148.12,376.23 148.8,377.41 171.07,415.84 		"/>
	</g>
</g>
<g id="Layer_3" class="st0">
	<text transform="matrix(1 0 0 1 246.1663 66.9087)" class="st4 st5 st6">LOGO 1</text>
	<text transform="matrix(1 0 0 1 246.1663 561.8605)" class="st4 st5 st6">LOGO 2</text>
</g>
</svg>
