<svg width="2034" height="226" viewBox="0 0 2034 226" fill="none" xmlns="http://www.w3.org/2000/svg">
<path fill-rule="evenodd" clip-rule="evenodd" d="M45.757 0H45.3738H0V12.9071V225.837H45.757V92.1067L119.099 219L123.094 226L123.095 225.946H167.922L171.917 219L245.26 92.1067V225.837H291.017V0H245.642H245.26V0.654629L145.535 173.274L45.757 0.655644V0ZM757.071 0H862.541V45.7245H757.071V225.891H711.314V45.7245H605.952V0H711.314H757.071ZM1060.95 0H1166.37V45.7245H1060.95V225.891H1015.19V45.7245H909.776V0H1015.19H1060.95ZM1259.52 0H1213.76V180.227V225.891V225.952H1442.83V180.227H1259.52V0ZM1922.89 194.88V225.838H1877.14V194.88V138.05L1766.02 0H1824.75L1877.14 65.0877L1900.01 93.5297L1922.89 65.0877L1975.27 0H2034L1922.89 138.05V194.88ZM1489.84 180.227H1718.89V225.952H1489.84V180.227ZM1718.89 0H1489.84V45.7245H1718.89V0ZM1489.89 89.5979H1719.34V135.323H1489.89V89.5979ZM491.449 51.0855L417.177 180.111L390.85 225.837H338.032L364.359 180.111L465.013 5.30514L468.133 0H514.766L517.886 5.30514L619.252 180.111L645.25 225.071V225.837H592.871L566.325 180.111L491.449 51.0855Z" fill="white"/>
<path fill-rule="evenodd" clip-rule="evenodd" d="M45.757 0H45.3738H0V12.9071V225.837H45.757V92.1067L119.099 219L123.094 226L123.095 225.946H167.922L171.917 219L245.26 92.1067V225.837H291.017V0H245.642H245.26V0.654629L145.535 173.274L45.757 0.655644V0ZM757.071 0H862.541V45.7245H757.071V225.891H711.314V45.7245H605.952V0H711.314H757.071ZM1060.95 0H1166.37V45.7245H1060.95V225.891H1015.19V45.7245H909.776V0H1015.19H1060.95ZM1259.52 0H1213.76V180.227V225.891V225.952H1442.83V180.227H1259.52V0ZM1922.89 194.88V225.838H1877.14V194.88V138.05L1766.02 0H1824.75L1877.14 65.0877L1900.01 93.5297L1922.89 65.0877L1975.27 0H2034L1922.89 138.05V194.88ZM1489.84 180.227H1718.89V225.952H1489.84V180.227ZM1718.89 0H1489.84V45.7245H1718.89V0ZM1489.89 89.5979H1719.34V135.323H1489.89V89.5979ZM491.449 51.0855L417.177 180.111L390.85 225.837H338.032L364.359 180.111L465.013 5.30514L468.133 0H514.766L517.886 5.30514L619.252 180.111L645.25 225.071V225.837H592.871L566.325 180.111L491.449 51.0855Z" fill="white"/>
<path fill-rule="evenodd" clip-rule="evenodd" d="M45.757 0H45.3738H0V12.9071V225.837H45.757V92.1067L119.099 219L123.094 226L123.095 225.946H167.922L171.917 219L245.26 92.1067V225.837H291.017V0H245.642H245.26V0.654629L145.535 173.274L45.757 0.655644V0ZM757.071 0H862.541V45.7245H757.071V225.891H711.314V45.7245H605.952V0H711.314H757.071ZM1060.95 0H1166.37V45.7245H1060.95V225.891H1015.19V45.7245H909.776V0H1015.19H1060.95ZM1259.52 0H1213.76V180.227V225.891V225.952H1442.83V180.227H1259.52V0ZM1922.89 194.88V225.838H1877.14V194.88V138.05L1766.02 0H1824.75L1877.14 65.0877L1900.01 93.5297L1922.89 65.0877L1975.27 0H2034L1922.89 138.05V194.88ZM1489.84 180.227H1718.89V225.952H1489.84V180.227ZM1718.89 0H1489.84V45.7245H1718.89V0ZM1489.89 89.5979H1719.34V135.323H1489.89V89.5979ZM491.449 51.0855L417.177 180.111L390.85 225.837H338.032L364.359 180.111L465.013 5.30514L468.133 0H514.766L517.886 5.30514L619.252 180.111L645.25 225.071V225.837H592.871L566.325 180.111L491.449 51.0855Z" fill="white"/>
<path fill-rule="evenodd" clip-rule="evenodd" d="M45.757 0H45.3738H0V12.9071V225.837H45.757V92.1067L119.099 219L123.094 226L123.095 225.946H167.922L171.917 219L245.26 92.1067V225.837H291.017V0H245.642H245.26V0.654629L145.535 173.274L45.757 0.655644V0ZM757.071 0H862.541V45.7245H757.071V225.891H711.314V45.7245H605.952V0H711.314H757.071ZM1060.95 0H1166.37V45.7245H1060.95V225.891H1015.19V45.7245H909.776V0H1015.19H1060.95ZM1259.52 0H1213.76V180.227V225.891V225.952H1442.83V180.227H1259.52V0ZM1922.89 194.88V225.838H1877.14V194.88V138.05L1766.02 0H1824.75L1877.14 65.0877L1900.01 93.5297L1922.89 65.0877L1975.27 0H2034L1922.89 138.05V194.88ZM1489.84 180.227H1718.89V225.952H1489.84V180.227ZM1718.89 0H1489.84V45.7245H1718.89V0ZM1489.89 89.5979H1719.34V135.323H1489.89V89.5979ZM491.449 51.0855L417.177 180.111L390.85 225.837H338.032L364.359 180.111L465.013 5.30514L468.133 0H514.766L517.886 5.30514L619.252 180.111L645.25 225.071V225.837H592.871L566.325 180.111L491.449 51.0855Z" fill="white"/>
<path fill-rule="evenodd" clip-rule="evenodd" d="M45.757 0H45.3738H0V12.9071V225.837H45.757V92.1067L119.099 219L123.094 226L123.095 225.946H167.922L171.917 219L245.26 92.1067V225.837H291.017V0H245.642H245.26V0.654629L145.535 173.274L45.757 0.655644V0ZM757.071 0H862.541V45.7245H757.071V225.891H711.314V45.7245H605.952V0H711.314H757.071ZM1060.95 0H1166.37V45.7245H1060.95V225.891H1015.19V45.7245H909.776V0H1015.19H1060.95ZM1259.52 0H1213.76V180.227V225.891V225.952H1442.83V180.227H1259.52V0ZM1922.89 194.88V225.838H1877.14V194.88V138.05L1766.02 0H1824.75L1877.14 65.0877L1900.01 93.5297L1922.89 65.0877L1975.27 0H2034L1922.89 138.05V194.88ZM1489.84 180.227H1718.89V225.952H1489.84V180.227ZM1718.89 0H1489.84V45.7245H1718.89V0ZM1489.89 89.5979H1719.34V135.323H1489.89V89.5979ZM491.449 51.0855L417.177 180.111L390.85 225.837H338.032L364.359 180.111L465.013 5.30514L468.133 0H514.766L517.886 5.30514L619.252 180.111L645.25 225.071V225.837H592.871L566.325 180.111L491.449 51.0855Z" fill="white"/>
<path fill-rule="evenodd" clip-rule="evenodd" d="M45.757 0H45.3738H0V12.9071V225.837H45.757V92.1067L119.099 219L123.094 226L123.095 225.946H167.922L171.917 219L245.26 92.1067V225.837H291.017V0H245.642H245.26V0.654629L145.535 173.274L45.757 0.655644V0ZM757.071 0H862.541V45.7245H757.071V225.891H711.314V45.7245H605.952V0H711.314H757.071ZM1060.95 0H1166.37V45.7245H1060.95V225.891H1015.19V45.7245H909.776V0H1015.19H1060.95ZM1259.52 0H1213.76V180.227V225.891V225.952H1442.83V180.227H1259.52V0ZM1922.89 194.88V225.838H1877.14V194.88V138.05L1766.02 0H1824.75L1877.14 65.0877L1900.01 93.5297L1922.89 65.0877L1975.27 0H2034L1922.89 138.05V194.88ZM1489.84 180.227H1718.89V225.952H1489.84V180.227ZM1718.89 0H1489.84V45.7245H1718.89V0ZM1489.89 89.5979H1719.34V135.323H1489.89V89.5979ZM491.449 51.0855L417.177 180.111L390.85 225.837H338.032L364.359 180.111L465.013 5.30514L468.133 0H514.766L517.886 5.30514L619.252 180.111L645.25 225.071V225.837H592.871L566.325 180.111L491.449 51.0855Z" fill="white"/>
<path fill-rule="evenodd" clip-rule="evenodd" d="M45.757 0H45.3738H0V12.9071V225.837H45.757V92.1067L119.099 219L123.094 226L123.095 225.946H167.922L171.917 219L245.26 92.1067V225.837H291.017V0H245.642H245.26V0.654629L145.535 173.274L45.757 0.655644V0ZM757.071 0H862.541V45.7245H757.071V225.891H711.314V45.7245H605.952V0H711.314H757.071ZM1060.95 0H1166.37V45.7245H1060.95V225.891H1015.19V45.7245H909.776V0H1015.19H1060.95ZM1259.52 0H1213.76V180.227V225.891V225.952H1442.83V180.227H1259.52V0ZM1922.89 194.88V225.838H1877.14V194.88V138.05L1766.02 0H1824.75L1877.14 65.0877L1900.01 93.5297L1922.89 65.0877L1975.27 0H2034L1922.89 138.05V194.88ZM1489.84 180.227H1718.89V225.952H1489.84V180.227ZM1718.89 0H1489.84V45.7245H1718.89V0ZM1489.89 89.5979H1719.34V135.323H1489.89V89.5979ZM491.449 51.0855L417.177 180.111L390.85 225.837H338.032L364.359 180.111L465.013 5.30514L468.133 0H514.766L517.886 5.30514L619.252 180.111L645.25 225.071V225.837H592.871L566.325 180.111L491.449 51.0855Z" fill="white"/>
<path fill-rule="evenodd" clip-rule="evenodd" d="M45.757 0H45.3738H0V12.9071V225.837H45.757V92.1067L119.099 219L123.094 226L123.095 225.946H167.922L171.917 219L245.26 92.1067V225.837H291.017V0H245.642H245.26V0.654629L145.535 173.274L45.757 0.655644V0ZM757.071 0H862.541V45.7245H757.071V225.891H711.314V45.7245H605.952V0H711.314H757.071ZM1060.95 0H1166.37V45.7245H1060.95V225.891H1015.19V45.7245H909.776V0H1015.19H1060.95ZM1259.52 0H1213.76V180.227V225.891V225.952H1442.83V180.227H1259.52V0ZM1922.89 194.88V225.838H1877.14V194.88V138.05L1766.02 0H1824.75L1877.14 65.0877L1900.01 93.5297L1922.89 65.0877L1975.27 0H2034L1922.89 138.05V194.88ZM1489.84 180.227H1718.89V225.952H1489.84V180.227ZM1718.89 0H1489.84V45.7245H1718.89V0ZM1489.89 89.5979H1719.34V135.323H1489.89V89.5979ZM491.449 51.0855L417.177 180.111L390.85 225.837H338.032L364.359 180.111L465.013 5.30514L468.133 0H514.766L517.886 5.30514L619.252 180.111L645.25 225.071V225.837H592.871L566.325 180.111L491.449 51.0855Z" fill="white"/>
<path d="M45.757 0H45.3738H0V12.9071V225.837H45.757V92.1067L119.099 219L123.094 226L123.095 225.946H167.922L171.917 219L245.26 92.1067V225.837H291.017V0H245.642H245.26V0.654629L145.535 173.274L45.757 0.655644V0ZM757.071 0H862.541V45.7245H757.071V225.891H711.314V45.7245H605.952V0H711.314H757.071ZM1060.95 0H1166.37V45.7245H1060.95V225.891H1015.19V45.7245H909.776V0H1015.19H1060.95ZM1259.52 0H1213.76V180.227V225.891V225.952H1442.83V180.227H1259.52V0ZM1922.89 194.88V225.838H1877.14V194.88V138.05L1766.02 0H1824.75L1877.14 65.0877L1900.01 93.5297L1922.89 65.0877L1975.27 0H2034L1922.89 138.05V194.88ZM1489.84 180.227H1718.89V225.952H1489.84V180.227ZM1718.89 0H1489.84V45.7245H1718.89V0ZM1489.89 89.5979H1719.34V135.323H1489.89V89.5979ZM491.449 51.0855L417.177 180.111L390.85 225.837H338.032L364.359 180.111L465.013 5.30514L468.133 0H514.766L517.886 5.30514L619.252 180.111L645.25 225.071V225.837H592.871L566.325 180.111L491.449 51.0855Z" stroke="black"/>
</svg>
